<?xml version="1.0" encoding="UTF-8" standalone="no"?>
<svg
   xmlns:dc="http://purl.org/dc/elements/1.1/"
   xmlns:cc="http://creativecommons.org/ns#"
   xmlns:rdf="http://www.w3.org/1999/02/22-rdf-syntax-ns#"
   xmlns:svg="http://www.w3.org/2000/svg"
   xmlns="http://www.w3.org/2000/svg"
   xmlns:sodipodi="http://sodipodi.sourceforge.net/DTD/sodipodi-0.dtd"
   xmlns:inkscape="http://www.inkscape.org/namespaces/inkscape"
   inkscape:version="1.0 (4035a4fb49, 2020-05-01)"
   sodipodi:docname="logo-10.svg"
   viewBox="0 0 324.51578 77.526253"
   height="77.526253"
   width="324.51578"
   xml:space="preserve"
   id="svg2"
   version="1.1"><metadata
     id="metadata8"><rdf:RDF><cc:Work
         rdf:about=""><dc:format>image/svg+xml</dc:format><dc:type
           rdf:resource="http://purl.org/dc/dcmitype/StillImage" /><dc:title></dc:title></cc:Work></rdf:RDF></metadata><defs
     id="defs6"><clipPath
       id="clipPath22"
       clipPathUnits="userSpaceOnUse"><path
         id="path20"
         d="m 745.805,896.172 c 17.086,-17.086 44.793,-17.086 61.875,0 17.086,17.086 17.086,44.789 0,61.875 -17.082,17.086 -44.789,17.086 -61.875,0 -17.082,-17.086 -17.082,-44.789 0,-61.875 z" /></clipPath><linearGradient
       id="linearGradient28"
       spreadMethod="pad"
       gradientTransform="matrix(-443.333,-660,-660,443.333,866.94,1061.39)"
       gradientUnits="userSpaceOnUse"
       y2="0"
       x2="1"
       y1="0"
       x1="0"><stop
         id="stop24"
         offset="0"
         style="stop-opacity:1;stop-color:#ff177c" /><stop
         id="stop26"
         offset="1"
         style="stop-opacity:1;stop-color:#ff0000" /></linearGradient><clipPath
       id="clipPath38"
       clipPathUnits="userSpaceOnUse"><path
         id="path36"
         d="M 582.777,795.02 391.621,603.855 c -17.086,-17.078 -17.086,-44.785 0,-61.875 17.086,-17.078 44.789,-17.078 61.875,0 l 80.781,80.793 c 6.664,4.942 16.082,4.454 22.129,-1.582 6.641,-6.652 6.821,-17.597 0.176,-24.238 l -59.141,-59.14 c -17.086,-17.09 -17.086,-44.793 0,-61.872 17.086,-17.089 44.789,-17.089 61.875,0 l 164.856,164.848 c 6.644,6.641 17.422,6.641 24.058,0 6.649,-6.648 6.649,-17.422 0,-24.062 l -10.171,-10.176 c -17.086,-17.09 -17.086,-44.793 0,-61.875 17.082,-17.09 44.789,-17.09 61.875,0 l 69.136,69.14 c 17.086,17.082 17.086,44.786 0,61.875 -17.082,17.082 -44.789,17.082 -61.875,0 L 797.18,665.672 c -6.649,-6.649 -17.418,-6.649 -24.067,0 -6.644,6.641 -6.644,17.414 0,24.062 l 103.309,103.301 c 17.086,17.086 17.086,44.789 0,61.875 -17.09,17.086 -44.789,17.086 -61.875,0 L 605.527,645.887 c -6.644,-6.641 -17.597,-6.465 -24.242,0.187 -6.043,6.035 -6.527,15.457 -1.582,22.117 l 132.965,132.965 c 17.082,17.086 17.082,44.789 0,61.875 -17.086,17.086 -44.793,17.086 -61.875,0 l -25.164,-25.16 c -6.512,-3.805 -14.992,-2.98 -20.578,2.606 -6.649,6.648 -6.824,17.597 -0.18,24.238 l 99.192,99.191 c 17.085,17.082 17.085,44.794 0,61.874 -17.086,17.08 -44.79,17.08 -61.875,0 L 477.336,860.926 c -6.648,-6.645 -17.426,-6.645 -24.066,0 -6.645,6.644 -6.645,17.418 0,24.062 l 46.273,46.27 c 17.082,17.086 17.082,44.793 0,61.875 -17.086,17.087 -44.793,17.087 -61.875,0 L 332.434,887.898 c -17.086,-17.085 -17.086,-44.789 0,-61.875 17.082,-17.085 44.789,-17.085 61.875,0 l 10.015,10.028 c 6.649,6.637 17.418,6.637 24.067,0 6.644,-6.649 6.644,-17.422 0,-24.067 L 325.082,708.68 c -17.086,-17.09 -17.086,-44.793 0,-61.875 17.086,-17.09 44.789,-17.09 61.875,0 L 555.93,815.773 c 6.644,6.649 17.593,6.465 24.242,-0.171 5.586,-5.586 6.41,-14.071 2.605,-20.582 z" /></clipPath><linearGradient
       id="linearGradient44"
       spreadMethod="pad"
       gradientTransform="matrix(-443.333,-660,-660,443.333,827.248,1088.05)"
       gradientUnits="userSpaceOnUse"
       y2="0"
       x2="1"
       y1="0"
       x1="0"><stop
         id="stop40"
         offset="0"
         style="stop-opacity:1;stop-color:#ff177c" /><stop
         id="stop42"
         offset="1"
         style="stop-opacity:1;stop-color:#ff0000" /></linearGradient></defs><sodipodi:namedview
     inkscape:current-layer="g12"
     inkscape:window-maximized="1"
     inkscape:window-y="-9"
     inkscape:window-x="-9"
     inkscape:cy="19.566644"
     inkscape:cx="155.35704"
     inkscape:zoom="2.9364507"
     fit-margin-bottom="0"
     fit-margin-right="0"
     fit-margin-left="0"
     fit-margin-top="0"
     showgrid="false"
     inkscape:document-rotation="0"
     id="namedview4"
     inkscape:window-height="1001"
     inkscape:window-width="1920"
     inkscape:pageshadow="2"
     inkscape:pageopacity="0"
     guidetolerance="10"
     gridtolerance="10"
     objecttolerance="10"
     borderopacity="1"
     bordercolor="#666666"
     pagecolor="#ffffff" /><g
     transform="matrix(1.3333333,0,0,-1.3333333,-41.635666,138.66502)"
     inkscape:label="ink_ext_XXXXXX"
     inkscape:groupmode="layer"
     id="g10"><g
       transform="scale(0.1)"
       id="g12"><g
         transform="matrix(1.0203547,0,0,1.0203547,-19.537911,-27.192896)"
         style="fill:#df0d0e;fill-opacity:1"
         id="g16"><g
           style="fill:#df0d0e;fill-opacity:1"
           clip-path="url(#clipPath22)"
           id="g18"><path
             id="path30"
             style="fill:#df0d0e;fill-opacity:1;fill-rule:nonzero;stroke:none"
             d="m 745.805,896.172 c 17.086,-17.086 44.793,-17.086 61.875,0 17.086,17.086 17.086,44.789 0,61.875 -17.082,17.086 -44.789,17.086 -61.875,0 -17.082,-17.086 -17.082,-44.789 0,-61.875" /></g></g><g
         style="fill:#df0d0e;fill-opacity:1"
         id="g32"><g
           style="fill:#df0d0e;fill-opacity:1"
           clip-path="url(#clipPath38)"
           id="g34"><path
             id="path46"
             style="fill:#df0d0e;fill-opacity:1;fill-rule:nonzero;stroke:none"
             d="M 582.777,795.02 391.621,603.855 c -17.086,-17.078 -17.086,-44.785 0,-61.875 17.086,-17.078 44.789,-17.078 61.875,0 l 80.781,80.793 c 6.664,4.942 16.082,4.454 22.129,-1.582 6.641,-6.652 6.821,-17.597 0.176,-24.238 l -59.141,-59.14 c -17.086,-17.09 -17.086,-44.793 0,-61.872 17.086,-17.089 44.789,-17.089 61.875,0 l 164.856,164.848 c 6.644,6.641 17.422,6.641 24.058,0 6.649,-6.648 6.649,-17.422 0,-24.062 l -10.171,-10.176 c -17.086,-17.09 -17.086,-44.793 0,-61.875 17.082,-17.09 44.789,-17.09 61.875,0 l 69.136,69.14 c 17.086,17.082 17.086,44.786 0,61.875 -17.082,17.082 -44.789,17.082 -61.875,0 L 797.18,665.672 c -6.649,-6.649 -17.418,-6.649 -24.067,0 -6.644,6.641 -6.644,17.414 0,24.062 l 103.309,103.301 c 17.086,17.086 17.086,44.789 0,61.875 -17.09,17.086 -44.789,17.086 -61.875,0 L 605.527,645.887 c -6.644,-6.641 -17.597,-6.465 -24.242,0.187 -6.043,6.035 -6.527,15.457 -1.582,22.117 l 132.965,132.965 c 17.082,17.086 17.082,44.789 0,61.875 -17.086,17.086 -44.793,17.086 -61.875,0 l -25.164,-25.16 c -6.512,-3.805 -14.992,-2.98 -20.578,2.606 -6.649,6.648 -6.824,17.597 -0.18,24.238 l 99.192,99.191 c 17.085,17.082 17.085,44.794 0,61.874 -17.086,17.08 -44.79,17.08 -61.875,0 L 477.336,860.926 c -6.648,-6.645 -17.426,-6.645 -24.066,0 -6.645,6.644 -6.645,17.418 0,24.062 l 46.273,46.27 c 17.082,17.086 17.082,44.793 0,61.875 -17.086,17.087 -44.793,17.087 -61.875,0 L 332.434,887.898 c -17.086,-17.085 -17.086,-44.789 0,-61.875 17.082,-17.085 44.789,-17.085 61.875,0 l 10.015,10.028 c 6.649,6.637 17.418,6.637 24.067,0 6.644,-6.649 6.644,-17.422 0,-24.067 L 325.082,708.68 c -17.086,-17.09 -17.086,-44.793 0,-61.875 17.086,-17.09 44.789,-17.09 61.875,0 L 555.93,815.773 c 6.644,6.649 17.593,6.465 24.242,-0.171 5.586,-5.586 6.41,-14.071 2.605,-20.582" /></g></g><path
         id="path48"
         style="fill:#000000;fill-opacity:1;fill-rule:nonzero;stroke:none;stroke-width:2.30439"
         d="m 1041.3686,674.15597 c -5.6688,-4.68252 -8.5493,-10.89286 -8.5493,-18.61488 0,-7.74277 3.5026,-13.86324 10.485,-18.42594 6.9132,-4.57422 23.0439,-9.94806 48.2309,-16.1584 25.2102,-6.21265 44.7513,-15.51088 58.6929,-27.93156 13.9186,-12.39532 20.9008,-30.51478 20.9008,-54.32608 0,-23.809 -8.918,-43.11521 -26.8001,-57.92323 -17.859,-14.82648 -41.3408,-22.2351 -70.4682,-22.2351 -42.0323,0 -79.89335,15.57308 -113.58368,46.74462 l 35.30342,43.29956 c 28.64346,-25.06949 55.09806,-37.61001 79.40936,-37.61001 10.8767,0 19.426,2.34127 25.6478,7.02149 6.222,4.68023 9.3099,11.02653 9.3099,18.99282 0,7.99393 -3.2723,14.31258 -9.8399,18.9928 -6.6366,4.68252 -19.6794,9.45262 -39.1746,14.25037 -30.902,7.35332 -53.508,16.92346 -67.81835,28.68741 -14.31031,11.77544 -21.45381,30.27281 -21.45381,55.47826 0,25.20316 9.05617,44.64764 27.1688,58.32883 18.08946,13.65582 40.69556,20.50448 67.81826,20.50448 17.7437,0 35.4645,-3.0418 53.2085,-9.11848 17.6976,-6.07438 33.1602,-14.69743 46.3182,-25.83455 l -30.0263,-43.29727 c -23.0439,17.46501 -46.8482,26.19635 -71.3901,26.19635 -9.8857,0 -17.6746,-2.34127 -23.3895,-7.02149" /><path
         id="path50"
         style="fill:#000000;fill-opacity:1;fill-rule:nonzero;stroke:none;stroke-width:2.30439"
         d="m 1334.1188,461.58488 h -59.2691 v 104.86604 l -91.9684,160.69689 h 64.2005 l 57.4024,-98.79166 57.3563,98.79166 h 64.2005 L 1334.1188,566.45092 V 461.58488" /><path
         id="path52"
         style="fill:#000000;fill-opacity:1;fill-rule:nonzero;stroke:none;stroke-width:2.30439"
         d="m 1512.4789,674.15597 c -5.6919,-4.68252 -8.5494,-10.89286 -8.5494,-18.61488 0,-7.74277 3.4796,-13.86324 10.462,-18.42594 6.9593,-4.57422 23.0439,-9.94806 48.2539,-16.1584 25.2101,-6.21265 44.7514,-15.51088 58.693,-27.93156 13.9185,-12.39532 20.9007,-30.51478 20.9007,-54.32608 0,-23.809 -8.9409,-43.11521 -26.8,-57.92323 -17.8591,-14.82648 -41.3409,-22.2351 -70.4684,-22.2351 -42.0552,0 -79.9164,15.57308 -113.5836,46.74462 l 35.3265,43.29956 c 28.6204,-25.06949 55.075,-37.61001 79.3863,-37.61001 10.8998,0 19.4491,2.34127 25.6478,7.02149 6.222,4.68023 9.3329,11.02653 9.3329,18.99282 0,7.99393 -3.3183,14.31258 -9.8858,18.9928 -6.5906,4.68252 -19.6564,9.45262 -39.1287,14.25037 -30.9249,7.35332 -53.531,16.92346 -67.8413,28.68741 -14.3103,11.77544 -21.4538,30.27281 -21.4538,55.47826 0,25.20316 9.0561,44.64764 27.1456,58.32883 18.1357,13.65582 40.7187,20.50448 67.8414,20.50448 17.7208,0 35.4645,-3.0418 53.1853,-9.11848 17.7208,-6.07438 33.1834,-14.69743 46.3415,-25.83455 l -30.0264,-43.29727 c -23.0439,17.46501 -46.8482,26.19635 -71.3899,26.19635 -9.8858,0 -17.6978,-2.34127 -23.3896,-7.02149" /><path
         id="path54"
         style="fill:#000000;fill-opacity:1;fill-rule:nonzero;stroke:none;stroke-width:2.30439"
         d="M 1802.9476,675.86584 V 461.58488 h -59.2921 v 214.28096 h -75.1923 v 51.28197 h 209.6999 v -51.28197 h -75.2155" /><path
         id="path56"
         style="fill:#000000;fill-opacity:1;fill-rule:nonzero;stroke:none;stroke-width:2.30439"
         d="M 2112.9577,727.14781 V 674.35415 H 1980.7316 V 619.6248 h 118.9298 v -50.51691 h -118.9298 v -55.08884 h 136.374 v -52.43417 h -195.643 v 265.56293 h 191.4951" /><path
         id="path58"
         style="fill:#000000;fill-opacity:1;fill-rule:nonzero;stroke:none;stroke-width:2.30439"
         d="m 2407.7587,628.76173 -71.8049,-145.15145 h -35.3263 l -71.4132,145.15145 V 461.58488 h -59.2921 v 265.56293 h 80.1699 l 68.3945,-145.88884 68.763,145.88884 h 79.7782 V 461.58488 h -59.2691 v 167.17685" /><path
         id="path60"
         style="fill:#000000;fill-opacity:1;fill-rule:nonzero;stroke:none;stroke-width:2.30439"
         d="m 2594.4837,674.15597 c -5.6918,-4.68252 -8.5493,-10.89286 -8.5493,-18.61488 0,-7.74277 3.4796,-13.86324 10.462,-18.42594 6.9592,-4.57422 23.044,-9.94806 48.2539,-16.1584 25.2102,-6.21265 44.7515,-15.51088 58.6929,-27.93156 13.9187,-12.39532 20.9009,-30.51478 20.9009,-54.32608 0,-23.809 -8.9411,-43.11521 -26.8001,-57.92323 -17.8359,-14.82648 -41.3407,-22.2351 -70.4683,-22.2351 -42.0552,0 -79.8933,15.57308 -113.5835,46.74462 l 35.3263,43.29956 c 28.6206,-25.06949 55.075,-37.61001 79.3863,-37.61001 10.8999,0 19.4492,2.34127 25.648,7.02149 6.2218,4.68023 9.3328,11.02653 9.3328,18.99282 0,7.99393 -3.3184,14.31258 -9.886,18.9928 -6.5904,4.68252 -19.6564,9.45262 -39.1285,14.25037 -30.925,7.35332 -53.5081,16.92346 -67.8414,28.68741 -14.3101,11.77544 -21.4538,30.27281 -21.4538,55.47826 0,25.20316 9.0561,44.64764 27.1457,58.32883 18.1356,13.65582 40.7187,20.50448 67.8413,20.50448 17.7208,0 35.4647,-3.0418 53.1855,-9.11848 17.7208,-6.07438 33.1832,-14.69743 46.3413,-25.83455 l -30.0262,-43.29727 c -23.0439,17.46501 -46.8484,26.19635 -71.3901,26.19635 -9.8859,0 -17.6978,-2.34127 -23.3897,-7.02149" /><path
         id="path62"
         style="fill:#000000;fill-opacity:1;fill-rule:nonzero;stroke:none;stroke-width:2.30439"
         d="M 1042.8664,1001.9467 V 859.81175 h -39.3128 v 142.13495 h -49.89021 v 34.0174 h 139.09321 v -34.0174 h -49.8902" /><path
         id="path64"
         style="fill:#000000;fill-opacity:1;fill-rule:nonzero;stroke:none;stroke-width:2.30439"
         d="m 1248.4875,1035.9641 v -35.0359 h -87.7053 v -36.28497 h 78.8795 V 931.1212 h -78.8795 v -36.52693 h 90.4705 v -34.78252 h -129.7833 v 176.15235 h 127.0181" /><path
         id="path66"
         style="fill:#000000;fill-opacity:1;fill-rule:nonzero;stroke:none;stroke-width:2.30439"
         d="m 1367.1868,894.59427 c 19.3108,0 35.1189,7.63216 47.3784,22.92641 l 25.21,-25.96129 c -20.0021,-22.51162 -43.5761,-33.76398 -70.6989,-33.76398 -27.1226,0 -49.4753,8.56082 -67.0348,25.69859 -17.5363,17.14009 -26.3161,38.76222 -26.3161,64.89403 0,26.12261 8.918,47.9245 26.8231,65.39637 17.8821,17.4719 39.7739,26.2033 65.6292,26.2033 28.8971,0 53.0932,-11.0104 72.6115,-33.0174 l -24.4728,-27.70799 c -12.4206,15.44633 -27.883,23.17989 -46.3644,23.17989 -14.7711,0 -27.4222,-4.82545 -37.9072,-14.48311 -10.5081,-9.66924 -15.7621,-22.68446 -15.7621,-39.0687 0,-16.38193 4.9544,-29.52389 14.8634,-39.43508 9.9319,-9.92042 21.9378,-14.86104 36.0407,-14.86104" /><path
         id="path68"
         style="fill:#000000;fill-opacity:1;fill-rule:nonzero;stroke:none;stroke-width:2.30439"
         d="m 1580.1357,1035.9641 h 39.313 V 859.81175 h -39.313 v 69.29311 h -70.0535 v -69.29311 h -39.3129 v 176.15235 h 39.3129 v -73.58839 h 70.0535 v 73.58839" /><path
         id="path70"
         style="fill:#000000;fill-opacity:1;fill-rule:nonzero;stroke:none;stroke-width:2.30439"
         d="m 1786.0103,1035.9641 h 39.313 V 859.81175 h -39.313 l -83.903,110.37815 V 859.81175 h -39.3128 v 176.15235 h 36.778 l 86.4378,-113.40141 v 113.40141" /><path
         id="path72"
         style="fill:#000000;fill-opacity:1;fill-rule:nonzero;stroke:none;stroke-width:2.30439"
         d="m 2003.499,948.89039 c 0,15.70906 -5.0466,29.1114 -15.1399,40.19324 -10.0701,11.08867 -22.4448,16.63547 -37.1698,16.63547 -14.702,0 -27.0767,-5.5468 -37.1469,-16.63547 -10.0932,-11.08184 -15.1168,-24.48418 -15.1168,-40.19324 0,-15.70674 5.0236,-29.06532 15.1168,-40.06418 10.0702,-11.0104 22.4449,-16.50869 37.1469,-16.50869 14.725,0 27.0997,5.49829 37.1698,16.50869 10.0933,10.99886 15.1399,24.35744 15.1399,40.06418 z m 13.3654,-64.76498 c -17.8359,-17.38204 -39.7507,-26.07652 -65.7904,-26.07652 -26.0397,0 -47.9775,8.69448 -65.7674,26.07652 -17.8129,17.40048 -26.7079,39.0226 -26.7079,64.89172 0,25.87142 8.895,47.5005 26.7079,64.88257 17.7899,17.4004 39.7277,26.088 65.7674,26.088 26.0397,0 47.9545,-8.6876 65.7904,-26.088 17.79,-17.38207 26.708,-39.01115 26.708,-64.88257 0,-25.86912 -8.918,-47.49124 -26.708,-64.89172" /><path
         id="path74"
         style="fill:#000000;fill-opacity:1;fill-rule:nonzero;stroke:none;stroke-width:2.30439"
         d="m 2076.8017,859.81175 v 176.15235 h 39.313 V 894.83624 h 75.1002 v -35.02449 h -114.4132" /><path
         id="path76"
         style="fill:#000000;fill-opacity:1;fill-rule:nonzero;stroke:none;stroke-width:2.30439"
         d="m 2349.9876,948.89039 c 0,15.70906 -5.0466,29.1114 -15.1168,40.19324 -10.0932,11.08867 -22.4679,16.63547 -37.1929,16.63547 -14.6791,0 -27.0767,-5.5468 -37.1468,-16.63547 -10.0933,-11.08184 -15.1168,-24.48418 -15.1168,-40.19324 0,-15.70674 5.0235,-29.06532 15.1168,-40.06418 10.0701,-11.0104 22.4677,-16.50869 37.1468,-16.50869 14.725,0 27.0997,5.49829 37.1929,16.50869 10.0702,10.99886 15.1168,24.35744 15.1168,40.06418 z m 13.3654,-64.76498 c -17.8359,-17.38204 -39.7507,-26.07652 -65.7904,-26.07652 -26.0165,0 -47.9775,8.69448 -65.7674,26.07652 -17.813,17.40048 -26.7078,39.0226 -26.7078,64.89172 0,25.87142 8.8948,47.5005 26.7078,64.88257 17.7899,17.4004 39.7509,26.088 65.7674,26.088 26.0397,0 47.9545,-8.6876 65.7904,-26.088 17.79,-17.38207 26.708,-39.01115 26.708,-64.88257 0,-25.86912 -8.918,-47.49124 -26.708,-64.89172" /><path
         id="path78"
         style="fill:#000000;fill-opacity:1;fill-rule:nonzero;stroke:none;stroke-width:2.30439"
         d="m 2537.7036,949.5218 h 39.5663 v -62.48825 c -17.4673,-19.48825 -41.6635,-29.23814 -72.5653,-29.23814 -25.8784,0 -47.6088,8.56082 -65.1452,25.69859 -17.5595,17.14009 -26.3392,38.76222 -26.3392,64.89403 0,26.12261 8.964,47.9245 26.8461,65.39637 17.8822,17.4719 39.4743,26.2033 64.7766,26.2033 25.2562,0 47.2169,-8.3189 65.8825,-24.9451 l -20.4168,-29.48011 c -7.9041,6.8879 -15.163,11.6303 -21.7997,14.23201 -6.6367,2.6016 -13.8263,3.9082 -21.5461,3.9082 -14.9554,0 -27.5605,-5.07886 -37.7919,-15.25047 -10.2545,-10.16238 -15.3704,-23.55552 -15.3704,-40.19093 0,-16.63542 4.9084,-29.9479 14.7251,-39.93976 9.8397,-9.99184 21.5691,-14.98778 35.165,-14.98778 13.6191,0 24.9566,2.59244 34.013,7.80498 v 48.38306" /><path
         id="path80"
         style="fill:#000000;fill-opacity:1;fill-rule:nonzero;stroke:none;stroke-width:2.30439"
         d="m 2685.1616,859.81175 h -39.3129 v 69.54661 l -60.9974,106.60574 h 42.5852 l 38.0457,-65.52302 38.0685,65.52302 h 42.5852 l -60.9743,-106.60574 v -69.54661" /></g></g></svg>
